<svg xmlns="http://www.w3.org/2000/svg" xmlns:xlink="http://www.w3.org/1999/xlink" id="processonSvg1000" viewBox="371.281652752664 148.88453608247437 536.4366944946719 369.23092783505126" width="536.4366944946719" height="369.23092783505126"><defs id="ProcessOnDefs1001"><marker id="ProcessOnMarker1053" markerUnits="userSpaceOnUse" orient="auto" markerWidth="14.118033988749895" markerHeight="9.174454630060925" viewBox="-0.5 -0.6881909602355868 14.118033988749895 9.174454630060925" refX="-0.5" refY="3.8990363547948754"><path id="ProcessOnPath1054" d="M12.0 3.8990363547948754L0.0 7.798072709589751V0.0Z" stroke="#323232" stroke-width="1.0" fill="#323232" transform="matrix(1.0,0.0,0.0,1.0,0.0,0.0)"/></marker><marker id="ProcessOnMarker1057" markerUnits="userSpaceOnUse" orient="auto" markerWidth="14.118033988749895" markerHeight="9.174454630060925" viewBox="-0.5 -0.6881909602355868 14.118033988749895 9.174454630060925" refX="-0.5" refY="3.8990363547948754"><path id="ProcessOnPath1058" d="M12.0 3.8990363547948754L0.0 7.798072709589751V0.0Z" stroke="#323232" stroke-width="1.0" fill="#323232" transform="matrix(1.0,0.0,0.0,1.0,0.0,0.0)"/></marker><marker id="ProcessOnMarker1065" markerUnits="userSpaceOnUse" orient="auto" markerWidth="14.118033988749895" markerHeight="9.174454630060925" viewBox="-0.5 -0.6881909602355868 14.118033988749895 9.174454630060925" refX="-0.5" refY="3.8990363547948754"><path id="ProcessOnPath1066" d="M12.0 3.8990363547948754L0.0 7.798072709589751V0.0Z" stroke="#323232" stroke-width="1.0" fill="#323232" transform="matrix(1.0,0.0,0.0,1.0,0.0,0.0)"/></marker><marker id="ProcessOnMarker1073" markerUnits="userSpaceOnUse" orient="auto" markerWidth="14.118033988749895" markerHeight="9.174454630060925" viewBox="-0.5 -0.6881909602355868 14.118033988749895 9.174454630060925" refX="-0.5" refY="3.8990363547948754"><path id="ProcessOnPath1074" d="M12.0 3.8990363547948754L0.0 7.798072709589751V0.0Z" stroke="#323232" stroke-width="1.0" fill="#323232" transform="matrix(1.0,0.0,0.0,1.0,0.0,0.0)"/></marker><marker id="ProcessOnMarker1081" markerUnits="userSpaceOnUse" orient="auto" markerWidth="14.118033988749895" markerHeight="9.174454630060925" viewBox="-0.5 -0.6881909602355868 14.118033988749895 9.174454630060925" refX="-0.5" refY="3.8990363547948754"><path id="ProcessOnPath1082" d="M12.0 3.8990363547948754L0.0 7.798072709589751V0.0Z" stroke="#323232" stroke-width="1.0" fill="#323232" transform="matrix(1.0,0.0,0.0,1.0,0.0,0.0)"/></marker></defs><g id="ProcessOnG1002"><path id="ProcessOnPath1003" d="M371.281652752664 148.88453608247437H907.7183472473359V518.1154639175256H371.28165275266406V148.88453608247437Z" fill="#ffffff"/><g id="ProcessOnG1004"><g id="ProcessOnG1005" transform="matrix(1.0,0.0,0.0,1.0,499.5049244027235,285.1154639175261)" opacity="1.0"><path id="ProcessOnPath1006" d="M0.0 4.0Q0.0 0.0 4.0 0.0L96.37385065209878 0.0Q100.37385065209878 0.0 100.37385065209878 4.0L100.37385065209878 30.76907216494851Q100.37385065209878 34.76907216494851 96.37385065209878 34.76907216494851L4.0 34.76907216494851Q0.0 34.76907216494851 0.0 30.76907216494851Z" stroke="none" stroke-width="0.0" stroke-dasharray="none" opacity="1.0" fill="#66ffff"/><g id="ProcessOnG1007" transform="matrix(1.0,0.0,0.0,1.0,10.0,9.259536082474256)"><text id="ProcessOnText1008" fill="#000000" font-size="13" x="39.18692532604939" y="13.325" font-family="Comic Sans MS" font-weight="bold" font-style="italic" text-decoration="none" family="Comic Sans MS" text-anchor="middle" size="13">TID3</text></g></g><g id="ProcessOnG1009" transform="matrix(1.0,0.0,0.0,1.0,599.8787750548222,285.11546391752563)" opacity="1.0"><path id="ProcessOnPath1010" d="M0.0 4.0Q0.0 0.0 4.0 0.0L96.37385065209878 0.0Q100.37385065209878 0.0 100.37385065209878 4.0L100.37385065209878 30.76907216494851Q100.37385065209878 34.76907216494851 96.37385065209878 34.76907216494851L4.0 34.76907216494851Q0.0 34.76907216494851 0.0 30.76907216494851Z" stroke="none" stroke-width="0.0" stroke-dasharray="none" opacity="1.0" fill="#66ffff"/><g id="ProcessOnG1011" transform="matrix(1.0,0.0,0.0,1.0,10.0,9.259536082474256)"><text id="ProcessOnText1012" fill="#000000" font-size="13" x="39.18692532604939" y="13.325" font-family="Comic Sans MS" font-weight="bold" font-style="italic" text-decoration="none" family="Comic Sans MS" text-anchor="middle" size="13">BeginTS</text></g></g><g id="ProcessOnG1013" transform="matrix(1.0,0.0,0.0,1.0,700.252625706921,285.11546391752563)" opacity="1.0"><path id="ProcessOnPath1014" d="M0.0 4.0Q0.0 0.0 4.0 0.0L96.37385065209878 0.0Q100.37385065209878 0.0 100.37385065209878 4.0L100.37385065209878 30.76907216494851Q100.37385065209878 34.76907216494851 96.37385065209878 34.76907216494851L4.0 34.76907216494851Q0.0 34.76907216494851 0.0 30.76907216494851Z" stroke="none" stroke-width="0.0" stroke-dasharray="none" opacity="1.0" fill="#66ffff"/><g id="ProcessOnG1015" transform="matrix(1.0,0.0,0.0,1.0,10.0,9.259536082474256)"><text id="ProcessOnText1016" fill="#000000" font-size="13" x="39.18692532604939" y="13.325" font-family="Comic Sans MS" font-weight="bold" font-style="italic" text-decoration="none" family="Comic Sans MS" text-anchor="middle" size="13">EndTS</text></g></g><g id="ProcessOnG1017" transform="matrix(1.0,0.0,0.0,1.0,800.6264763590202,285.11546391752563)" opacity="1.0"><path id="ProcessOnPath1018" d="M0.0 4.0Q0.0 0.0 4.0 0.0L53.091870888315725 0.0Q57.091870888315725 0.0 57.091870888315725 4.0L57.091870888315725 30.76907216494874Q57.091870888315725 34.76907216494874 53.091870888315725 34.76907216494874L4.0 34.76907216494874Q0.0 34.76907216494874 0.0 30.76907216494874Z" stroke="none" stroke-width="0.0" stroke-dasharray="none" opacity="1.0" fill="#a1a1a1"/><g id="ProcessOnG1019" transform="matrix(1.0,0.0,0.0,1.0,10.0,9.25953608247437)"><text id="ProcessOnText1020" fill="#000000" font-size="13" x="17.545935444157863" y="13.325" font-family="Comic Sans MS" font-weight="bold" font-style="italic" text-decoration="none" family="Comic Sans MS" text-anchor="middle" size="13">Ptr</text></g></g><g id="ProcessOnG1021" transform="matrix(1.0,0.0,0.0,1.0,499.5049244027235,367.11546391752586)" opacity="1.0"><path id="ProcessOnPath1022" d="M0.0 4.0Q0.0 0.0 4.0 0.0L96.37385065209878 0.0Q100.37385065209878 0.0 100.37385065209878 4.0L100.37385065209878 30.76907216494851Q100.37385065209878 34.76907216494851 96.37385065209878 34.76907216494851L4.0 34.76907216494851Q0.0 34.76907216494851 0.0 30.76907216494851Z" stroke="none" stroke-width="0.0" stroke-dasharray="none" opacity="1.0" fill="#99ffff"/><g id="ProcessOnG1023" transform="matrix(1.0,0.0,0.0,1.0,10.0,9.259536082474256)"><text id="ProcessOnText1024" fill="#000000" font-size="13" x="39.18692532604939" y="13.325" font-family="Comic Sans MS" font-weight="bold" font-style="italic" text-decoration="none" family="Comic Sans MS" text-anchor="middle" size="13">TID2</text></g></g><g id="ProcessOnG1025" transform="matrix(1.0,0.0,0.0,1.0,599.8787750548222,367.11546391752563)" opacity="1.0"><path id="ProcessOnPath1026" d="M0.0 4.0Q0.0 0.0 4.0 0.0L96.37385065209878 0.0Q100.37385065209878 0.0 100.37385065209878 4.0L100.37385065209878 30.76907216494851Q100.37385065209878 34.76907216494851 96.37385065209878 34.76907216494851L4.0 34.76907216494851Q0.0 34.76907216494851 0.0 30.76907216494851Z" stroke="none" stroke-width="0.0" stroke-dasharray="none" opacity="1.0" fill="#99ffff"/><g id="ProcessOnG1027" transform="matrix(1.0,0.0,0.0,1.0,10.0,9.259536082474256)"><text id="ProcessOnText1028" fill="#000000" font-size="13" x="39.18692532604939" y="13.325" font-family="Comic Sans MS" font-weight="bold" font-style="italic" text-decoration="none" family="Comic Sans MS" text-anchor="middle" size="13">BeginTS</text></g></g><g id="ProcessOnG1029" transform="matrix(1.0,0.0,0.0,1.0,700.252625706921,367.11546391752563)" opacity="1.0"><path id="ProcessOnPath1030" d="M0.0 4.0Q0.0 0.0 4.0 0.0L96.37385065209878 0.0Q100.37385065209878 0.0 100.37385065209878 4.0L100.37385065209878 30.76907216494851Q100.37385065209878 34.76907216494851 96.37385065209878 34.76907216494851L4.0 34.76907216494851Q0.0 34.76907216494851 0.0 30.76907216494851Z" stroke="none" stroke-width="0.0" stroke-dasharray="none" opacity="1.0" fill="#99ffff"/><g id="ProcessOnG1031" transform="matrix(1.0,0.0,0.0,1.0,10.0,9.259536082474256)"><text id="ProcessOnText1032" fill="#000000" font-size="13" x="39.18692532604939" y="13.325" font-family="Comic Sans MS" font-weight="bold" font-style="italic" text-decoration="none" family="Comic Sans MS" text-anchor="middle" size="13">EndTS</text></g></g><g id="ProcessOnG1033" transform="matrix(1.0,0.0,0.0,1.0,800.6264763590202,367.11546391752563)" opacity="1.0"><path id="ProcessOnPath1034" d="M0.0 4.0Q0.0 0.0 4.0 0.0L53.091870888315725 0.0Q57.091870888315725 0.0 57.091870888315725 4.0L57.091870888315725 30.76907216494874Q57.091870888315725 34.76907216494874 53.091870888315725 34.76907216494874L4.0 34.76907216494874Q0.0 34.76907216494874 0.0 30.76907216494874Z" stroke="none" stroke-width="0.0" stroke-dasharray="none" opacity="1.0" fill="#cfcfcf"/><g id="ProcessOnG1035" transform="matrix(1.0,0.0,0.0,1.0,10.0,9.25953608247437)"><text id="ProcessOnText1036" fill="#000000" font-size="13" x="17.545935444157863" y="13.325" font-family="Comic Sans MS" font-weight="bold" font-style="italic" text-decoration="none" family="Comic Sans MS" text-anchor="middle" size="13">Ptr</text></g></g><g id="ProcessOnG1037" transform="matrix(1.0,0.0,0.0,1.0,499.5049244027235,449.11546391752563)" opacity="1.0"><path id="ProcessOnPath1038" d="M0.0 4.0Q0.0 0.0 4.0 0.0L96.37385065209878 0.0Q100.37385065209878 0.0 100.37385065209878 4.0L100.37385065209878 30.76907216494851Q100.37385065209878 34.76907216494851 96.37385065209878 34.76907216494851L4.0 34.76907216494851Q0.0 34.76907216494851 0.0 30.76907216494851Z" stroke="none" stroke-width="0.0" stroke-dasharray="none" opacity="1.0" fill="#ccffff"/><g id="ProcessOnG1039" transform="matrix(1.0,0.0,0.0,1.0,10.0,9.259536082474256)"><text id="ProcessOnText1040" fill="#000000" font-size="13" x="39.18692532604939" y="13.325" font-family="Comic Sans MS" font-weight="bold" font-style="italic" text-decoration="none" family="Comic Sans MS" text-anchor="middle" size="13">TID1</text></g></g><g id="ProcessOnG1041" transform="matrix(1.0,0.0,0.0,1.0,599.8787750548222,449.11546391752563)" opacity="1.0"><path id="ProcessOnPath1042" d="M0.0 4.0Q0.0 0.0 4.0 0.0L96.37385065209878 0.0Q100.37385065209878 0.0 100.37385065209878 4.0L100.37385065209878 30.76907216494851Q100.37385065209878 34.76907216494851 96.37385065209878 34.76907216494851L4.0 34.76907216494851Q0.0 34.76907216494851 0.0 30.76907216494851Z" stroke="none" stroke-width="0.0" stroke-dasharray="none" opacity="1.0" fill="#ccffff"/><g id="ProcessOnG1043" transform="matrix(1.0,0.0,0.0,1.0,10.0,9.259536082474256)"><text id="ProcessOnText1044" fill="#000000" font-size="13" x="39.18692532604939" y="13.325" font-family="Comic Sans MS" font-weight="bold" font-style="italic" text-decoration="none" family="Comic Sans MS" text-anchor="middle" size="13">BeginTS</text></g></g><g id="ProcessOnG1045" transform="matrix(1.0,0.0,0.0,1.0,700.252625706921,449.11546391752563)" opacity="1.0"><path id="ProcessOnPath1046" d="M0.0 4.0Q0.0 0.0 4.0 0.0L96.37385065209878 0.0Q100.37385065209878 0.0 100.37385065209878 4.0L100.37385065209878 30.76907216494851Q100.37385065209878 34.76907216494851 96.37385065209878 34.76907216494851L4.0 34.76907216494851Q0.0 34.76907216494851 0.0 30.76907216494851Z" stroke="none" stroke-width="0.0" stroke-dasharray="none" opacity="1.0" fill="#ccffff"/><g id="ProcessOnG1047" transform="matrix(1.0,0.0,0.0,1.0,10.0,9.259536082474256)"><text id="ProcessOnText1048" fill="#000000" font-size="13" x="39.18692532604939" y="13.325" font-family="Comic Sans MS" font-weight="bold" font-style="italic" text-decoration="none" family="Comic Sans MS" text-anchor="middle" size="13">EndTS</text></g></g><g id="ProcessOnG1049" transform="matrix(1.0,0.0,0.0,1.0,800.62647635902,449.11546391752563)" opacity="1.0"><path id="ProcessOnPath1050" d="M0.0 4.0Q0.0 0.0 4.0 0.0L53.091870888315725 0.0Q57.091870888315725 0.0 57.091870888315725 4.0L57.091870888315725 30.76907216494874Q57.091870888315725 34.76907216494874 53.091870888315725 34.76907216494874L4.0 34.76907216494874Q0.0 34.76907216494874 0.0 30.76907216494874Z" stroke="none" stroke-width="0.0" stroke-dasharray="none" opacity="1.0" fill="#e5e5e5"/></g><g id="ProcessOnG1051"><path id="ProcessOnPath1052" d="M857.7183472473359 302.5L887.7183472473359 302.5L887.7183472473359 343.5L549.6918497287729 343.5L549.6918497287729 353.49742992877594" stroke="#323232" stroke-width="1.0" stroke-dasharray="none" fill="none" marker-end="url(#ProcessOnMarker1053)"/></g><g id="ProcessOnG1055"><path id="ProcessOnPath1056" d="M857.7183472473359 384.5L887.7183472473359 384.5L887.7183472473359 425.5L549.6918497287729 425.5L549.6918497287729 435.4974299287757" stroke="#323232" stroke-width="1.0" stroke-dasharray="none" fill="none" marker-end="url(#ProcessOnMarker1057)"/></g><g id="ProcessOnG1059" transform="matrix(1.0,0.0,0.0,1.0,391.281652752664,440.11546391752563)" opacity="1.0"><path id="ProcessOnPath1060" d="M0.0 29.0C0.0 -9.666666666666666 58.0 -9.666666666666666 58.0 29.0C58.0 67.66666666666667 0.0 67.66666666666667 0.0 29.0Z" stroke="none" stroke-width="0.0" stroke-dasharray="none" opacity="1.0" fill="#ffcccc"/><g id="ProcessOnG1061" transform="matrix(1.0,0.0,0.0,1.0,10.0,20.875)"><text id="ProcessOnText1062" fill="#000000" font-size="13" x="18.0" y="13.325" font-family="Comic Sans MS" font-weight="bold" font-style="italic" text-decoration="none" family="Comic Sans MS" text-anchor="middle" size="13">Read</text></g></g><g id="ProcessOnG1063"><path id="ProcessOnPath1064" d="M449.281652752664 469.11546391752563L485.905318898799 467.20822302728374" stroke="#323232" stroke-width="1.0" stroke-dasharray="5.0 2.0" fill="none" marker-end="url(#ProcessOnMarker1065)"/></g><g id="ProcessOnG1067" transform="matrix(1.0,0.0,0.0,1.0,550.4509675681911,168.88453608247437)" opacity="1.0"><path id="ProcessOnPath1068" d="M0.0 29.0C0.0 -9.666666666666666 58.0 -9.666666666666666 58.0 29.0C58.0 67.66666666666667 0.0 67.66666666666667 0.0 29.0Z" stroke="none" stroke-width="0.0" stroke-dasharray="none" opacity="1.0" fill="#cce5ff"/><g id="ProcessOnG1069" transform="matrix(1.0,0.0,0.0,1.0,10.0,20.875)"><text id="ProcessOnText1070" fill="#000000" font-size="13" x="18.0" y="13.325" font-family="Comic Sans MS" font-weight="bold" font-style="italic" text-decoration="none" family="Comic Sans MS" text-anchor="middle" size="13">Write</text></g></g><g id="ProcessOnG1071"><path id="ProcessOnPath1072" d="M579.4509675681911 226.88453608247437L555.8890134253573 272.98921091684684" stroke="#323232" stroke-width="1.0" stroke-dasharray="5.0 2.0" fill="none" marker-end="url(#ProcessOnMarker1073)"/></g><g id="ProcessOnG1075" transform="matrix(1.0,0.0,0.0,1.0,391.281652752664,255.88453608247437)" opacity="1.0"><path id="ProcessOnPath1076" d="M0.0 29.0C0.0 -9.666666666666666 58.0 -9.666666666666666 58.0 29.0C58.0 67.66666666666667 0.0 67.66666666666667 0.0 29.0Z" stroke="none" stroke-width="0.0" stroke-dasharray="none" opacity="1.0" fill="#ffcccc"/><g id="ProcessOnG1077" transform="matrix(1.0,0.0,0.0,1.0,10.0,20.875)"><text id="ProcessOnText1078" fill="#000000" font-size="13" x="18.0" y="13.325" font-family="Comic Sans MS" font-weight="bold" font-style="italic" text-decoration="none" family="Comic Sans MS" text-anchor="middle" size="13">Read</text></g></g><g id="ProcessOnG1079"><path id="ProcessOnPath1080" d="M420.281652752664 313.88453608247437L489.3390991164056 375.43871720081506" stroke="#323232" stroke-width="1.0" stroke-dasharray="5.0 2.0" fill="none" marker-end="url(#ProcessOnMarker1081)"/></g></g></g></svg>