<svg xmlns="http://www.w3.org/2000/svg" xmlns:xlink="http://www.w3.org/1999/xlink" id="processonSvg1000" viewBox="323.281652752664 235.0 578.088547161225 299.11546391752563" width="578.088547161225" height="299.11546391752563"><defs id="ProcessOnDefs1001"><marker id="ProcessOnMarker1053" markerUnits="userSpaceOnUse" orient="auto" markerWidth="14.118033988749895" markerHeight="9.174454630060925" viewBox="-0.5 -0.6881909602355868 14.118033988749895 9.174454630060925" refX="-0.5" refY="3.8990363547948754"><path id="ProcessOnPath1054" d="M12.0 3.8990363547948754L0.0 7.798072709589751V0.0Z" stroke="#323232" stroke-width="1.0" fill="#323232" transform="matrix(1.0,0.0,0.0,1.0,0.0,0.0)"/></marker><marker id="ProcessOnMarker1057" markerUnits="userSpaceOnUse" orient="auto" markerWidth="14.118033988749895" markerHeight="9.174454630060925" viewBox="-0.5 -0.6881909602355868 14.118033988749895 9.174454630060925" refX="-0.5" refY="3.8990363547948754"><path id="ProcessOnPath1058" d="M12.0 3.8990363547948754L0.0 7.798072709589751V0.0Z" stroke="#323232" stroke-width="1.0" fill="#323232" transform="matrix(1.0,0.0,0.0,1.0,0.0,0.0)"/></marker><marker id="ProcessOnMarker1065" markerUnits="userSpaceOnUse" orient="auto" markerWidth="14.118033988749895" markerHeight="9.174454630060925" viewBox="-0.5 -0.6881909602355868 14.118033988749895 9.174454630060925" refX="-0.5" refY="3.8990363547948754"><path id="ProcessOnPath1066" d="M12.0 3.8990363547948754L0.0 7.798072709589751V0.0Z" stroke="#323232" stroke-width="1.0" fill="#323232" transform="matrix(1.0,0.0,0.0,1.0,0.0,0.0)"/></marker><marker id="ProcessOnMarker1073" markerUnits="userSpaceOnUse" orient="auto" markerWidth="14.118033988749895" markerHeight="9.174454630060925" viewBox="-0.5 -0.6881909602355868 14.118033988749895 9.174454630060925" refX="-0.5" refY="3.8990363547948754"><path id="ProcessOnPath1074" d="M12.0 3.8990363547948754L0.0 7.798072709589751V0.0Z" stroke="#323232" stroke-width="1.0" fill="#323232" transform="matrix(1.0,0.0,0.0,1.0,0.0,0.0)"/></marker><marker id="ProcessOnMarker1081" markerUnits="userSpaceOnUse" orient="auto" markerWidth="14.118033988749895" markerHeight="9.174454630060925" viewBox="-0.5 -0.6881909602355868 14.118033988749895 9.174454630060925" refX="-0.5" refY="3.8990363547948754"><path id="ProcessOnPath1082" d="M12.0 3.8990363547948754L0.0 7.798072709589751V0.0Z" stroke="#323232" stroke-width="1.0" fill="#323232" transform="matrix(1.0,0.0,0.0,1.0,0.0,0.0)"/></marker></defs><g id="ProcessOnG1002"><path id="ProcessOnPath1003" d="M323.281652752664 235.0H901.3701999138891V534.1154639175256H323.28165275266406V235.0Z" fill="#ffffff"/><g id="ProcessOnG1004"><g id="ProcessOnG1005" transform="matrix(1.0,0.0,0.0,1.0,497.5771296789785,286.9699198241378)" opacity="1.0"><path id="ProcessOnPath1006" d="M0.0 4.0Q0.0 0.0 4.0 0.0L95.13523762316078 0.0Q99.13523762316078 0.0 99.13523762316078 4.0L99.13523762316078 30.487510107115767Q99.13523762316078 34.48751010711577 95.13523762316078 34.48751010711577L4.0 34.48751010711577Q0.0 34.48751010711577 0.0 30.487510107115767Z" stroke="none" stroke-width="0.0" stroke-dasharray="none" opacity="1.0" fill="#66ffb3"/><g id="ProcessOnG1007" transform="matrix(1.0,0.0,0.0,1.0,10.0,9.743755053557884)"><text id="ProcessOnText1008" fill="#000000" font-size="12" x="38.56761881158039" y="12.3" font-family="Comic Sans MS" font-weight="bold" font-style="italic" text-decoration="none" family="Comic Sans MS" text-anchor="middle" size="12">TID3</text></g></g><g id="ProcessOnG1009" transform="matrix(1.0,0.0,0.0,1.0,596.7123673021392,286.9699198241373)" opacity="1.0"><path id="ProcessOnPath1010" d="M0.0 4.0Q0.0 0.0 4.0 0.0L95.13523762316078 0.0Q99.13523762316078 0.0 99.13523762316078 4.0L99.13523762316078 30.487510107115767Q99.13523762316078 34.48751010711577 95.13523762316078 34.48751010711577L4.0 34.48751010711577Q0.0 34.48751010711577 0.0 30.487510107115767Z" stroke="none" stroke-width="0.0" stroke-dasharray="none" opacity="1.0" fill="#66ffb3"/><g id="ProcessOnG1011" transform="matrix(1.0,0.0,0.0,1.0,10.0,9.743755053557884)"><text id="ProcessOnText1012" fill="#000000" font-size="12" x="38.56761881158039" y="12.3" font-family="Comic Sans MS" font-weight="bold" font-style="italic" text-decoration="none" family="Comic Sans MS" text-anchor="middle" size="12">BeginTS</text></g></g><g id="ProcessOnG1013" transform="matrix(1.0,0.0,0.0,1.0,695.8476049253,286.9699198241373)" opacity="1.0"><path id="ProcessOnPath1014" d="M0.0 4.0Q0.0 0.0 4.0 0.0L95.13523762316078 0.0Q99.13523762316078 0.0 99.13523762316078 4.0L99.13523762316078 30.487510107115767Q99.13523762316078 34.48751010711577 95.13523762316078 34.48751010711577L4.0 34.48751010711577Q0.0 34.48751010711577 0.0 30.487510107115767Z" stroke="none" stroke-width="0.0" stroke-dasharray="none" opacity="1.0" fill="#66ffb3"/><g id="ProcessOnG1015" transform="matrix(1.0,0.0,0.0,1.0,10.0,9.743755053557884)"><text id="ProcessOnText1016" fill="#000000" font-size="12" x="38.56761881158039" y="12.3" font-family="Comic Sans MS" font-weight="bold" font-style="italic" text-decoration="none" family="Comic Sans MS" text-anchor="middle" size="12">EndTS</text></g></g><g id="ProcessOnG1017" transform="matrix(1.0,0.0,0.0,1.0,794.9828425484611,286.9699198241373)" opacity="1.0"><path id="ProcessOnPath1018" d="M0.0 4.0Q0.0 0.0 4.0 0.0L52.38735736542803 0.0Q56.38735736542803 0.0 56.38735736542803 4.0L56.38735736542803 30.487510107115995Q56.38735736542803 34.487510107115995 52.38735736542803 34.487510107115995L4.0 34.487510107115995Q0.0 34.487510107115995 0.0 30.487510107115995Z" stroke="none" stroke-width="0.0" stroke-dasharray="none" opacity="1.0" fill="#a1a1a1"/><g id="ProcessOnG1019" transform="matrix(1.0,0.0,0.0,1.0,10.0,9.743755053557997)"><text id="ProcessOnText1020" fill="#000000" font-size="12" x="17.193678682714015" y="12.3" font-family="Comic Sans MS" font-weight="bold" font-style="italic" text-decoration="none" family="Comic Sans MS" text-anchor="middle" size="12">Ptr</text></g></g><g id="ProcessOnG1021" transform="matrix(1.0,0.0,0.0,1.0,497.5771296789785,368.3058788444775)" opacity="1.0"><path id="ProcessOnPath1022" d="M0.0 4.0Q0.0 0.0 4.0 0.0L95.13523762316078 0.0Q99.13523762316078 0.0 99.13523762316078 4.0L99.13523762316078 30.487510107115767Q99.13523762316078 34.48751010711577 95.13523762316078 34.48751010711577L4.0 34.48751010711577Q0.0 34.48751010711577 0.0 30.487510107115767Z" stroke="none" stroke-width="0.0" stroke-dasharray="none" opacity="1.0" fill="#99ffcc"/><g id="ProcessOnG1023" transform="matrix(1.0,0.0,0.0,1.0,10.0,9.743755053557884)"><text id="ProcessOnText1024" fill="#000000" font-size="12" x="38.56761881158039" y="12.3" font-family="Comic Sans MS" font-weight="bold" font-style="italic" text-decoration="none" family="Comic Sans MS" text-anchor="middle" size="12">TID2</text></g></g><g id="ProcessOnG1025" transform="matrix(1.0,0.0,0.0,1.0,596.7123673021392,368.30587884447726)" opacity="1.0"><path id="ProcessOnPath1026" d="M0.0 4.0Q0.0 0.0 4.0 0.0L95.13523762316078 0.0Q99.13523762316078 0.0 99.13523762316078 4.0L99.13523762316078 30.487510107115767Q99.13523762316078 34.48751010711577 95.13523762316078 34.48751010711577L4.0 34.48751010711577Q0.0 34.48751010711577 0.0 30.487510107115767Z" stroke="none" stroke-width="0.0" stroke-dasharray="none" opacity="1.0" fill="#99ffcc"/><g id="ProcessOnG1027" transform="matrix(1.0,0.0,0.0,1.0,10.0,9.743755053557884)"><text id="ProcessOnText1028" fill="#000000" font-size="12" x="38.56761881158039" y="12.3" font-family="Comic Sans MS" font-weight="bold" font-style="italic" text-decoration="none" family="Comic Sans MS" text-anchor="middle" size="12">BeginTS</text></g></g><g id="ProcessOnG1029" transform="matrix(1.0,0.0,0.0,1.0,695.8476049253,368.30587884447726)" opacity="1.0"><path id="ProcessOnPath1030" d="M0.0 4.0Q0.0 0.0 4.0 0.0L95.13523762316078 0.0Q99.13523762316078 0.0 99.13523762316078 4.0L99.13523762316078 30.487510107115767Q99.13523762316078 34.48751010711577 95.13523762316078 34.48751010711577L4.0 34.48751010711577Q0.0 34.48751010711577 0.0 30.487510107115767Z" stroke="none" stroke-width="0.0" stroke-dasharray="none" opacity="1.0" fill="#99ffcc"/><g id="ProcessOnG1031" transform="matrix(1.0,0.0,0.0,1.0,10.0,9.743755053557884)"><text id="ProcessOnText1032" fill="#000000" font-size="12" x="38.56761881158039" y="12.3" font-family="Comic Sans MS" font-weight="bold" font-style="italic" text-decoration="none" family="Comic Sans MS" text-anchor="middle" size="12">EndTS</text></g></g><g id="ProcessOnG1033" transform="matrix(1.0,0.0,0.0,1.0,794.9828425484611,368.30587884447726)" opacity="1.0"><path id="ProcessOnPath1034" d="M0.0 4.0Q0.0 0.0 4.0 0.0L52.38735736542803 0.0Q56.38735736542803 0.0 56.38735736542803 4.0L56.38735736542803 30.487510107115995Q56.38735736542803 34.487510107115995 52.38735736542803 34.487510107115995L4.0 34.487510107115995Q0.0 34.487510107115995 0.0 30.487510107115995Z" stroke="none" stroke-width="0.0" stroke-dasharray="none" opacity="1.0" fill="#cfcfcf"/><g id="ProcessOnG1035" transform="matrix(1.0,0.0,0.0,1.0,10.0,9.743755053557997)"><text id="ProcessOnText1036" fill="#000000" font-size="12" x="17.193678682714015" y="12.3" font-family="Comic Sans MS" font-weight="bold" font-style="italic" text-decoration="none" family="Comic Sans MS" text-anchor="middle" size="12">Ptr</text></g></g><g id="ProcessOnG1037" transform="matrix(1.0,0.0,0.0,1.0,497.5771296789785,449.64183786481715)" opacity="1.0"><path id="ProcessOnPath1038" d="M0.0 4.0Q0.0 0.0 4.0 0.0L95.13523762316078 0.0Q99.13523762316078 0.0 99.13523762316078 4.0L99.13523762316078 30.487510107115767Q99.13523762316078 34.48751010711577 95.13523762316078 34.48751010711577L4.0 34.48751010711577Q0.0 34.48751010711577 0.0 30.487510107115767Z" stroke="none" stroke-width="0.0" stroke-dasharray="none" opacity="1.0" fill="#ccffe6"/><g id="ProcessOnG1039" transform="matrix(1.0,0.0,0.0,1.0,10.0,9.743755053557884)"><text id="ProcessOnText1040" fill="#000000" font-size="12" x="38.56761881158039" y="12.3" font-family="Comic Sans MS" font-weight="bold" font-style="italic" text-decoration="none" family="Comic Sans MS" text-anchor="middle" size="12">TID1</text></g></g><g id="ProcessOnG1041" transform="matrix(1.0,0.0,0.0,1.0,596.7123673021392,449.64183786481715)" opacity="1.0"><path id="ProcessOnPath1042" d="M0.0 4.0Q0.0 0.0 4.0 0.0L95.13523762316078 0.0Q99.13523762316078 0.0 99.13523762316078 4.0L99.13523762316078 30.487510107115767Q99.13523762316078 34.48751010711577 95.13523762316078 34.48751010711577L4.0 34.48751010711577Q0.0 34.48751010711577 0.0 30.487510107115767Z" stroke="none" stroke-width="0.0" stroke-dasharray="none" opacity="1.0" fill="#ccffe6"/><g id="ProcessOnG1043" transform="matrix(1.0,0.0,0.0,1.0,10.0,9.743755053557884)"><text id="ProcessOnText1044" fill="#000000" font-size="12" x="38.56761881158039" y="12.3" font-family="Comic Sans MS" font-weight="bold" font-style="italic" text-decoration="none" family="Comic Sans MS" text-anchor="middle" size="12">BeginTS</text></g></g><g id="ProcessOnG1045" transform="matrix(1.0,0.0,0.0,1.0,695.8476049253,449.64183786481715)" opacity="1.0"><path id="ProcessOnPath1046" d="M0.0 4.0Q0.0 0.0 4.0 0.0L95.13523762316078 0.0Q99.13523762316078 0.0 99.13523762316078 4.0L99.13523762316078 30.487510107115767Q99.13523762316078 34.48751010711577 95.13523762316078 34.48751010711577L4.0 34.48751010711577Q0.0 34.48751010711577 0.0 30.487510107115767Z" stroke="none" stroke-width="0.0" stroke-dasharray="none" opacity="1.0" fill="#ccffe6"/><g id="ProcessOnG1047" transform="matrix(1.0,0.0,0.0,1.0,10.0,9.743755053557884)"><text id="ProcessOnText1048" fill="#000000" font-size="12" x="38.56761881158039" y="12.3" font-family="Comic Sans MS" font-weight="bold" font-style="italic" text-decoration="none" family="Comic Sans MS" text-anchor="middle" size="12">EndTS</text></g></g><g id="ProcessOnG1049" transform="matrix(1.0,0.0,0.0,1.0,794.982842548461,449.64183786481715)" opacity="1.0"><path id="ProcessOnPath1050" d="M0.0 4.0Q0.0 0.0 4.0 0.0L52.38735736542803 0.0Q56.38735736542803 0.0 56.38735736542803 4.0L56.38735736542803 30.487510107115995Q56.38735736542803 34.487510107115995 52.38735736542803 34.487510107115995L4.0 34.487510107115995Q0.0 34.487510107115995 0.0 30.487510107115995Z" stroke="none" stroke-width="0.0" stroke-dasharray="none" opacity="1.0" fill="#e5e5e5"/></g><g id="ProcessOnG1051"><path id="ProcessOnPath1052" d="M851.3701999138891 304.2136748776953L881.3701999138891 304.2136748776953L881.3701999138891 344.8816543878654L547.144748490559 344.8816543878654L547.144748490559 354.6878448557276" stroke="#323232" stroke-width="1.0" stroke-dasharray="none" fill="none" marker-end="url(#ProcessOnMarker1053)"/></g><g id="ProcessOnG1055"><path id="ProcessOnPath1056" d="M851.3701999138891 385.54963389803527L881.3701999138891 385.54963389803527L881.3701999138891 426.21761340820524L547.144748490559 426.21761340820524L547.144748490559 436.02380387606723" stroke="#323232" stroke-width="1.0" stroke-dasharray="none" fill="none" marker-end="url(#ProcessOnMarker1057)"/></g><g id="ProcessOnG1059" transform="matrix(1.0,0.0,0.0,1.0,392.8318783673715,456.5851514397242)" opacity="1.0"><path id="ProcessOnPath1060" d="M0.0 28.7651562389007C0.0 -9.5883854129669 57.28428016648077 -9.5883854129669 57.28428016648077 28.7651562389007C57.28428016648077 67.1186978907683 0.0 67.1186978907683 0.0 28.7651562389007Z" stroke="none" stroke-width="0.0" stroke-dasharray="none" opacity="1.0" fill="#ff9999"/><g id="ProcessOnG1061" transform="matrix(1.0,0.0,0.0,1.0,10.0,21.2651562389007)"><text id="ProcessOnText1062" fill="#000000" font-size="12" x="17.642140083240385" y="12.3" font-family="Comic Sans MS" font-weight="bold" font-style="italic" text-decoration="none" family="Comic Sans MS" text-anchor="middle" size="12">Read</text></g></g><g id="ProcessOnG1063"><path id="ProcessOnPath1064" d="M450.11615853385223 485.3503076786249L484.88575138187855 471.8231800455707" stroke="#323232" stroke-width="1.0" stroke-dasharray="5.0 2.0" fill="none" marker-end="url(#ProcessOnMarker1065)"/></g><g id="ProcessOnG1067" transform="matrix(1.0,0.0,0.0,1.0,392.8318783673715,255.0)" opacity="1.0"><path id="ProcessOnPath1068" d="M0.0 28.7651562389007C0.0 -9.5883854129669 57.28428016648077 -9.5883854129669 57.28428016648077 28.7651562389007C57.28428016648077 67.1186978907683 0.0 67.1186978907683 0.0 28.7651562389007Z" stroke="none" stroke-width="0.0" stroke-dasharray="none" opacity="1.0" fill="#ffff99"/><g id="ProcessOnG1069" transform="matrix(1.0,0.0,0.0,1.0,10.0,21.2651562389007)"><text id="ProcessOnText1070" fill="#000000" font-size="12" x="17.642140083240385" y="12.3" font-family="Comic Sans MS" font-weight="bold" font-style="italic" text-decoration="none" family="Comic Sans MS" text-anchor="middle" size="12">Write</text></g></g><g id="ProcessOnG1071"><path id="ProcessOnPath1072" d="M450.11615853385223 283.7651562389007L485.070518618822 298.82521224826985" stroke="#323232" stroke-width="1.0" stroke-dasharray="5.0 2.0" fill="none" marker-end="url(#ProcessOnMarker1073)"/></g><g id="ProcessOnG1075" transform="matrix(1.0,0.0,0.0,1.0,343.281652752664,356.78447765913455)" opacity="1.0"><path id="ProcessOnPath1076" d="M0.0 28.7651562389007C0.0 -9.5883854129669 57.28428016648077 -9.5883854129669 57.28428016648077 28.7651562389007C57.28428016648077 67.1186978907683 0.0 67.1186978907683 0.0 28.7651562389007Z" stroke="none" stroke-width="0.0" stroke-dasharray="none" opacity="1.0" fill="#ff9999"/><g id="ProcessOnG1077" transform="matrix(1.0,0.0,0.0,1.0,10.0,21.2651562389007)"><text id="ProcessOnText1078" fill="#000000" font-size="12" x="17.642140083240385" y="12.3" font-family="Comic Sans MS" font-weight="bold" font-style="italic" text-decoration="none" family="Comic Sans MS" text-anchor="middle" size="12">Read</text></g></g><g id="ProcessOnG1079"><path id="ProcessOnPath1080" d="M400.56593291914476 385.54963389803527L483.9590956902286 385.5496338980354" stroke="#323232" stroke-width="1.0" stroke-dasharray="5.0 2.0" fill="none" marker-end="url(#ProcessOnMarker1081)"/></g></g></g></svg>