<svg xmlns="http://www.w3.org/2000/svg" xmlns:xlink="http://www.w3.org/1999/xlink" id="processonSvg1000" viewBox="118.0 186.0 796.0 228.0" width="796.0" height="228.0"><defs id="ProcessOnDefs1001"><marker id="ProcessOnMarker1063" markerUnits="userSpaceOnUse" orient="auto" markerWidth="14.118033988749895" markerHeight="9.174454630060925" viewBox="-0.5 -0.6881909602355868 14.118033988749895 9.174454630060925" refX="-0.5" refY="3.8990363547948754"><path id="ProcessOnPath1064" d="M12.0 3.8990363547948754L0.0 7.798072709589751V0.0Z" stroke="#323232" stroke-width="1.0" fill="#323232" transform="matrix(1.0,0.0,0.0,1.0,0.0,0.0)"/></marker></defs><g id="ProcessOnG1002"><path id="ProcessOnPath1003" d="M118.0 186.0H914.0V414.0H118.0V186.0Z" fill="#ffffff"/><g id="ProcessOnG1004"><g id="ProcessOnG1005" transform="matrix(1.0,0.0,0.0,1.0,258.0,222.0)" opacity="1.0"><path id="ProcessOnPath1006" d="M0.0 18.0C0.0 -6.0 36.0 -6.0 36.0 18.0C36.0 42.0 0.0 42.0 0.0 18.0Z" stroke="none" stroke-width="0.0" stroke-dasharray="none" opacity="1.0" fill="#ff9999"/><g id="ProcessOnG1007" transform="matrix(1.0,0.0,0.0,1.0,10.0,8.625)"><text id="ProcessOnText1008" fill="#000000" font-size="15" x="7.0" y="15.375" font-family="Comic Sans MS" font-weight="normal" font-style="italic" text-decoration="none" family="Comic Sans MS" text-anchor="middle" size="15">A</text></g></g><g id="ProcessOnG1009" transform="matrix(1.0,0.0,0.0,1.0,307.0,222.0)" opacity="1.0"><path id="ProcessOnPath1010" d="M0.0 18.0C0.0 -6.0 36.0 -6.0 36.0 18.0C36.0 42.0 0.0 42.0 0.0 18.0Z" stroke="none" stroke-width="0.0" stroke-dasharray="none" opacity="1.0" fill="#ff9999"/><g id="ProcessOnG1011" transform="matrix(1.0,0.0,0.0,1.0,10.0,8.625)"><text id="ProcessOnText1012" fill="#000000" font-size="15" x="7.0" y="15.375" font-family="Comic Sans MS" font-weight="normal" font-style="italic" text-decoration="none" family="Comic Sans MS" text-anchor="middle" size="15">A</text></g></g><g id="ProcessOnG1013" transform="matrix(1.0,0.0,0.0,1.0,307.0,276.0)" opacity="1.0"><path id="ProcessOnPath1014" d="M0.0 18.0C0.0 -6.0 36.0 -6.0 36.0 18.0C36.0 42.0 0.0 42.0 0.0 18.0Z" stroke="none" stroke-width="0.0" stroke-dasharray="none" opacity="1.0" fill="#ffff99"/><g id="ProcessOnG1015" transform="matrix(1.0,0.0,0.0,1.0,10.0,8.625)"><text id="ProcessOnText1016" fill="#000000" font-size="15" x="7.0" y="15.375" font-family="Comic Sans MS" font-weight="normal" font-style="italic" text-decoration="none" family="Comic Sans MS" text-anchor="middle" size="15">B</text></g></g><g id="ProcessOnG1017" transform="matrix(1.0,0.0,0.0,1.0,258.0,330.0)" opacity="1.0"><path id="ProcessOnPath1018" d="M0.0 18.0C0.0 -6.0 36.0 -6.0 36.0 18.0C36.0 42.0 0.0 42.0 0.0 18.0Z" stroke="none" stroke-width="0.0" stroke-dasharray="none" opacity="1.0" fill="#99ffcc"/><g id="ProcessOnG1019" transform="matrix(1.0,0.0,0.0,1.0,10.0,8.625)"><text id="ProcessOnText1020" fill="#000000" font-size="15" x="7.0" y="15.375" font-family="Comic Sans MS" font-weight="normal" font-style="italic" text-decoration="none" family="Comic Sans MS" text-anchor="middle" size="15">C</text></g></g><g id="ProcessOnG1021" transform="matrix(1.0,0.0,0.0,1.0,307.0,330.0)" opacity="1.0"><path id="ProcessOnPath1022" d="M0.0 18.0C0.0 -6.0 36.0 -6.0 36.0 18.0C36.0 42.0 0.0 42.0 0.0 18.0Z" stroke="none" stroke-width="0.0" stroke-dasharray="none" opacity="1.0" fill="#99ffcc"/><g id="ProcessOnG1023" transform="matrix(1.0,0.0,0.0,1.0,10.0,8.625)"><text id="ProcessOnText1024" fill="#000000" font-size="15" x="7.0" y="15.375" font-family="Comic Sans MS" font-weight="normal" font-style="italic" text-decoration="none" family="Comic Sans MS" text-anchor="middle" size="15">C</text></g></g><g id="ProcessOnG1025" transform="matrix(1.0,0.0,0.0,1.0,207.40287769784175,222.0)" opacity="1.0"><path id="ProcessOnPath1026" d="M0.0 18.0C0.0 -6.0 36.0 -6.0 36.0 18.0C36.0 42.0 0.0 42.0 0.0 18.0Z" stroke="none" stroke-width="0.0" stroke-dasharray="none" opacity="1.0" fill="#ff9999"/><g id="ProcessOnG1027" transform="matrix(1.0,0.0,0.0,1.0,10.0,8.625)"><text id="ProcessOnText1028" fill="#000000" font-size="15" x="7.0" y="15.375" font-family="Comic Sans MS" font-weight="normal" font-style="italic" text-decoration="none" family="Comic Sans MS" text-anchor="middle" size="15">A</text></g></g><g id="ProcessOnG1029" transform="matrix(1.0,0.0,0.0,1.0,374.0,206.0)" opacity="1.0"><path id="ProcessOnPath1030" d="M0.0 4.0Q0.0 0.0 4.0 0.0L116.0 0.0Q120.0 0.0 120.0 4.0L120.0 172.0Q120.0 176.0 116.0 176.0L4.0 176.0Q0.0 176.0 0.0 172.0Z" stroke="none" stroke-width="0.0" stroke-dasharray="none" opacity="1.0" fill="#a1a1a1"/><g id="ProcessOnG1031" transform="matrix(1.0,0.0,0.0,1.0,10.0,78.625)"><text id="ProcessOnText1032" fill="#000000" font-size="15" x="49.0" y="15.375" font-family="Comic Sans MS" font-weight="normal" font-style="italic" text-decoration="none" family="Comic Sans MS" text-anchor="middle" size="15">Scheduler</text></g></g><g id="ProcessOnG1033" transform="matrix(1.0,0.0,0.0,1.0,623.0,276.0)" opacity="1.0"><path id="ProcessOnPath1034" d="M0.0 18.0C0.0 -6.0 36.0 -6.0 36.0 18.0C36.0 42.0 0.0 42.0 0.0 18.0Z" stroke="none" stroke-width="0.0" stroke-dasharray="none" opacity="1.0" fill="#ffff99"/><g id="ProcessOnG1035" transform="matrix(1.0,0.0,0.0,1.0,10.0,8.625)"><text id="ProcessOnText1036" fill="#000000" font-size="15" x="7.0" y="15.375" font-family="Comic Sans MS" font-weight="normal" font-style="italic" text-decoration="none" family="Comic Sans MS" text-anchor="middle" size="15">B</text></g></g><g id="ProcessOnG1037" transform="matrix(1.0,0.0,0.0,1.0,672.0,276.0)" opacity="1.0"><path id="ProcessOnPath1038" d="M0.0 18.0C0.0 -6.0 36.0 -6.0 36.0 18.0C36.0 42.0 0.0 42.0 0.0 18.0Z" stroke="none" stroke-width="0.0" stroke-dasharray="none" opacity="1.0" fill="#99ffcc"/><g id="ProcessOnG1039" transform="matrix(1.0,0.0,0.0,1.0,10.0,8.625)"><text id="ProcessOnText1040" fill="#000000" font-size="15" x="7.0" y="15.375" font-family="Comic Sans MS" font-weight="normal" font-style="italic" text-decoration="none" family="Comic Sans MS" text-anchor="middle" size="15">C</text></g></g><g id="ProcessOnG1041" transform="matrix(1.0,0.0,0.0,1.0,722.566844919786,276.0)" opacity="1.0"><path id="ProcessOnPath1042" d="M0.0 18.0C0.0 -6.0 36.0 -6.0 36.0 18.0C36.0 42.0 0.0 42.0 0.0 18.0Z" stroke="none" stroke-width="0.0" stroke-dasharray="none" opacity="1.0" fill="#ff9999"/><g id="ProcessOnG1043" transform="matrix(1.0,0.0,0.0,1.0,10.0,8.625)"><text id="ProcessOnText1044" fill="#000000" font-size="15" x="7.0" y="15.375" font-family="Comic Sans MS" font-weight="normal" font-style="italic" text-decoration="none" family="Comic Sans MS" text-anchor="middle" size="15">A</text></g></g><g id="ProcessOnG1045" transform="matrix(1.0,0.0,0.0,1.0,769.5721925133689,276.0)" opacity="1.0"><path id="ProcessOnPath1046" d="M0.0 18.0C0.0 -6.0 36.0 -6.0 36.0 18.0C36.0 42.0 0.0 42.0 0.0 18.0Z" stroke="none" stroke-width="0.0" stroke-dasharray="none" opacity="1.0" fill="#ff9999"/><g id="ProcessOnG1047" transform="matrix(1.0,0.0,0.0,1.0,10.0,8.625)"><text id="ProcessOnText1048" fill="#000000" font-size="15" x="7.0" y="15.375" font-family="Comic Sans MS" font-weight="normal" font-style="italic" text-decoration="none" family="Comic Sans MS" text-anchor="middle" size="15">A</text></g></g><g id="ProcessOnG1049" transform="matrix(1.0,0.0,0.0,1.0,572.4028776978417,276.0)" opacity="1.0"><path id="ProcessOnPath1050" d="M0.0 18.0C0.0 -6.0 36.0 -6.0 36.0 18.0C36.0 42.0 0.0 42.0 0.0 18.0Z" stroke="none" stroke-width="0.0" stroke-dasharray="none" opacity="1.0" fill="#ff9999"/><g id="ProcessOnG1051" transform="matrix(1.0,0.0,0.0,1.0,10.0,8.625)"><text id="ProcessOnText1052" fill="#000000" font-size="15" x="7.0" y="15.375" font-family="Comic Sans MS" font-weight="normal" font-style="italic" text-decoration="none" family="Comic Sans MS" text-anchor="middle" size="15">A</text></g></g><g id="ProcessOnG1053" transform="matrix(1.0,0.0,0.0,1.0,520.0,276.0)" opacity="1.0"><path id="ProcessOnPath1054" d="M0.0 18.0C0.0 -6.0 36.0 -6.0 36.0 18.0C36.0 42.0 0.0 42.0 0.0 18.0Z" stroke="none" stroke-width="0.0" stroke-dasharray="none" opacity="1.0" fill="#99ffcc"/><g id="ProcessOnG1055" transform="matrix(1.0,0.0,0.0,1.0,10.0,8.625)"><text id="ProcessOnText1056" fill="#000000" font-size="15" x="7.0" y="15.375" font-family="Comic Sans MS" font-weight="normal" font-style="italic" text-decoration="none" family="Comic Sans MS" text-anchor="middle" size="15">C</text></g></g><g id="ProcessOnG1057" transform="matrix(1.0,0.0,0.0,1.0,815.5721925133689,276.0)" opacity="1.0"><path id="ProcessOnPath1058" d="M0.0 18.0C0.0 -6.0 36.0 -6.0 36.0 18.0C36.0 42.0 0.0 42.0 0.0 18.0Z" stroke="none" stroke-width="0.0" stroke-dasharray="none" opacity="1.0" fill="#ff9999"/><g id="ProcessOnG1059" transform="matrix(1.0,0.0,0.0,1.0,10.0,8.625)"><text id="ProcessOnText1060" fill="#000000" font-size="15" x="7.0" y="15.375" font-family="Comic Sans MS" font-weight="normal" font-style="italic" text-decoration="none" family="Comic Sans MS" text-anchor="middle" size="15">A</text></g></g><g id="ProcessOnG1061"><path id="ProcessOnPath1062" d="M138.0 394.0L516.0 394.0L516.0 394.0L880.3819660112501 394.0" stroke="#323232" stroke-width="1.0" stroke-dasharray="none" fill="none" marker-end="url(#ProcessOnMarker1063)"/></g></g></g></svg>